<?xml version="1.0" standalone="no"?><!DOCTYPE svg PUBLIC "-//W3C//DTD SVG 1.1//EN" "http://www.w3.org/Graphics/SVG/1.1/DTD/svg11.dtd"><svg t="1710836760556" class="icon" viewBox="0 0 1024 1024" version="1.1" xmlns="http://www.w3.org/2000/svg" p-id="1897" xmlns:xlink="http://www.w3.org/1999/xlink" width="200" height="200"><path d="M277.053 698.947h464.842V408.421H277.053v290.526z m305.684-222.315c5.052-7.58 12.631-7.58 20.21-5.053l103.58 63.158c7.578 5.052 7.578 12.631 5.052 20.21-2.526 5.053-7.579 7.58-12.632 7.58-2.526 0-5.052 0-7.579-2.527L587.79 496.842c-7.578-5.053-10.105-12.631-5.052-20.21zM464 640.842c15.158 0 27.79-15.158 32.842-32.842 0-5.053 2.526-7.579 2.526-12.632 0-7.579 5.053-12.631 12.632-15.157 7.579 0 12.632 7.578 12.632 15.157 0 2.527 0 7.58 2.526 12.632 5.053 15.158 17.684 35.368 32.842 35.368 20.21 0 35.368-25.263 35.368-45.473 0-7.58 7.58-15.158 15.158-15.158s15.158 7.579 15.158 15.158c0 35.368-22.737 75.79-63.158 75.79-20.21 0-35.368-12.632-45.473-27.79-10.106 15.158-27.79 27.79-48 27.79-37.895 0-63.158-45.474-63.158-75.79 0-7.58 7.579-15.158 15.158-15.158s15.158 7.579 15.158 15.158c-5.053 15.158 10.105 42.947 27.789 42.947zM314.947 527.158l93.474-45.474c7.579-2.526 15.158 0 17.684 7.58 2.527 7.578 0 15.157-7.579 17.683l-93.473 45.474c-2.527 0-5.053 2.526-5.053 2.526-5.053 0-10.105-2.526-12.632-7.579 0-7.579 2.527-15.157 7.58-20.21z m-27.79 293.053c5.054 5.052 12.632 7.578 17.685 7.578 5.053 0 12.632 0 20.21-7.578 2.527-5.053 7.58-12.632 10.106-17.685h-58.105c2.526 2.527 5.052 12.632 10.105 17.685z m411.79 0c5.053 5.052 12.632 7.578 17.685 7.578 5.052 0 12.631 0 20.21-7.578 2.526-5.053 7.58-12.632 10.105-17.685h-58.105c2.526 2.527 7.58 12.632 10.105 17.685z" p-id="1898"></path><path d="M512 32C246.737 32 32 246.737 32 512s214.737 480 480 480 480-214.737 480-480S777.263 32 512 32z m333.474 760.421c-2.527 2.526-7.58 5.053-12.632 5.053h-55.579c-2.526 12.631-10.105 30.315-17.684 37.894-10.105 12.632-27.79 17.685-40.421 17.685s-27.79-5.053-37.895-17.685c-7.579-7.579-15.158-27.79-17.684-40.42H362.947c-2.526 12.63-10.105 30.315-17.684 37.894-10.105 12.632-27.79 17.684-40.42 17.684s-27.79-5.052-37.896-17.684c-7.579-7.579-15.158-27.79-17.684-40.42h-50.526c-12.632 0-25.263-12.633-25.263-25.264V332.632c0-12.632 12.631-27.79 25.263-27.79h232.42l-144-73.263c-7.578-5.053-12.63-15.158-7.578-25.263s15.158-12.632 25.263-7.58l199.58 106.106h40.42l113.684-161.684c10.106-10.105 20.21-10.105 30.316-5.053s10.105 17.684 5.053 25.263l-98.527 141.474h240c7.58 0 10.106 5.053 12.632 7.58 5.053 5.052 5.053 15.157 5.053 20.21v444.631c-2.527 2.526-2.527 10.105-7.58 15.158z" p-id="1899"></path><path d="M572.632 335.158H198.737v434.526H820.21V335.158H572.63z m202.105 373.895c0 5.052 5.052 10.105-2.526 17.684-2.527 2.526-7.58 5.052-12.632 5.052H269.474c-7.58 0-25.263-5.052-25.263-22.736V405.895c0-15.158 17.684-22.737 25.263-22.737h492.631c5.053 0 10.106 2.526 12.632 7.579 5.052 5.052 2.526 12.631 2.526 17.684l-2.526 300.632c-2.526-2.527 0-2.527 0 0z" p-id="1900"></path></svg>