<?xml version="1.0" standalone="no"?><!DOCTYPE svg PUBLIC "-//W3C//DTD SVG 1.1//EN" "http://www.w3.org/Graphics/SVG/1.1/DTD/svg11.dtd"><svg t="1710837502273" class="icon" viewBox="0 0 1024 1024" version="1.1" xmlns="http://www.w3.org/2000/svg" p-id="4898" xmlns:xlink="http://www.w3.org/1999/xlink" width="200" height="200"><path d="M225.027547 894.340058c18.173366-24.205702 60.476075-66.508411 66.508411-96.746449 0-18.173366 0-48.411404 12.141031-72.617106s24.129343-72.540747 30.543472-96.746449a774.353386 774.353386 0 0 0 12.064672-102.778785c0-18.173366 18.173366-163.331219 24.205702-187.536921 0-30.543472 24.205702-42.302709 42.302709-54.44374a359.802106 359.802106 0 0 1 42.379068-18.097007h12.064672s-12.370106-66.355694 5.726901-84.681778c24.205702-18.173366 42.379068-42.302709 72.617106-36.270373s48.335045 12.064672 72.540747 42.302709 6.032336 42.379068 0 42.379068c-6.032336 6.032336-6.032336 18.097007-12.064672 18.097008-6.032336 6.032336-12.14103 6.032336-12.14103 12.14103s6.108694 24.129343 6.108694 30.543472-6.108694 12.064672 0 12.064672c6.032336 6.032336 24.129343 6.032336 24.129344 6.032336l-12.064672-18.097008 36.270374-12.14103a179.213825 179.213825 0 0 0 36.346732-18.097007s-6.108694-12.14103 6.032336-12.141031h18.097007l12.14103 11.835596a61.086945 61.086945 0 0 0 6.032336 18.097007l90.714113 6.032336 6.032336-30.543472H847.732592l-6.032336 36.346732s18.097007 6.032336 24.205702 0a13.057334 13.057334 0 0 0 12.370107-11.835596 61.086945 61.086945 0 0 1 6.032335-18.097007s12.14103 6.032336 12.141031 12.064672v18.173366a5.879618 5.879618 0 0 0 6.032336 6.032336h12.064671l6.108695-24.205702s12.064672-6.032336 18.097007 0c6.032336 0 6.032336 12.064672 6.032336 12.064671a22.067659 22.067659 0 0 0 6.108694 18.173366c6.032336 0 18.097007-6.032336 24.129344 0a60.094282 60.094282 0 0 1 6.108694 6.719564A511.603164 511.603164 0 1 0 198.683802 916.331358a240.911639 240.911639 0 0 0 26.343745-21.9913z" p-id="4899"></path><path d="M983.421969 313.555929a7.635868 7.635868 0 0 1-2.367119 6.261411v12.064672h-121.02851s0 12.14103-18.097008 18.173366a402.792043 402.792043 0 0 0-42.379068 18.097008s24.205702 60.476075 42.379068 78.649441l-18.173366 18.173366s-42.302709-42.379068-42.302709-78.649441l-36.270374 18.173366c-18.173366 6.032336-18.173366 6.032336-24.205702 6.032336s-24.205702 24.205702-30.543472 30.543472c-12.14103 0-30.543472 12.064672-42.379068 12.064672-18.097007 6.032336-66.508411 0-66.508411 0A461.282793 461.282793 0 0 1 557.569604 495.213231a172.265185 172.265185 0 0 0-24.205702 72.540747c0 12.14103-6.032336 24.205702 0 30.543473s24.205702 0 36.346732 6.032336 54.367381 66.58477 66.508411 78.649441 0 12.064672 0 24.205702v30.543473c0 6.032336 36.270374 30.543472 42.30271 48.411403 12.14103 24.129343 36.346732 60.476075 36.346732 72.540748 0 18.173366 12.064672 72.540747 6.032336 78.649441a86.514386 86.514386 0 0 1-18.249725 11.453802s-6.032336 30.543472 0 36.270374a13.973639 13.973639 0 0 1 0.992663 1.221739A512.061316 512.061316 0 0 0 983.421969 313.555929zM648.360076 936.719126c-6.032336-12.14103-12.064672-6.108694-18.097008-36.346732-6.108694-24.129343-12.14103-84.605419-24.205702-96.74645-12.14103-18.097007-120.952151-126.984487-133.093181-133.016822s-30.543472 30.543472-66.508411 120.952151c-42.302709 90.714113-66.508411 120.952151-90.714114 126.984487-24.205702 24.205702-42.302709 24.205702-48.411403 30.543472a108.963838 108.963838 0 0 1-13.36277 5.19239 510.992294 510.992294 0 0 0 394.392589 51.083958z" p-id="4900"></path></svg>