<?xml version="1.0" standalone="no"?><!DOCTYPE svg PUBLIC "-//W3C//DTD SVG 1.1//EN" "http://www.w3.org/Graphics/SVG/1.1/DTD/svg11.dtd"><svg t="1743570442316" class="icon" viewBox="0 0 1024 1024" version="1.1" xmlns="http://www.w3.org/2000/svg" p-id="8626" xmlns:xlink="http://www.w3.org/1999/xlink" width="200" height="200"><path d="M444.234 767.543c-10.992 0-19.903 8.91-19.903 19.902v98.433c0 10.992 8.91 19.903 19.903 19.903 10.99 0 19.902-8.91 19.902-19.903v-98.433c-0.001-10.992-8.911-19.902-19.902-19.902zM727.384 468.609c1.459-97.112-27.307-177.78-64.207-240.833h-299.73c-36.9 63.054-65.666 143.721-64.21 240.833-41.505 27.568-71.86 50.323-64.944 135.063 6.92 84.739 73.986 142.112 104.476 137.826 16.413-2.308 21.737-26.547 21.737-26.547l10.504-43.899s4.94 7.718 12.073 18.046h260.456c7.133-10.328 12.073-18.046 12.073-18.046l10.504 43.9s5.365 25.551 21.742 26.546c30.728 1.866 97.551-53.087 104.472-137.826 6.914-84.74-23.441-107.495-64.946-135.063z m-214.074-1.785c-6.372-0.092-89.645-3.127-97.304-99.873 2.788-91.974 90.748-100.094 97.304-100.576 6.558 0.482 94.522 8.602 97.306 100.576-7.654 96.746-90.928 99.782-97.306 99.873zM517.058 772.608c-11.14 0-20.173 9.033-20.173 20.179v146.378c0 11.14 9.033 20.173 20.173 20.173 11.145 0 20.179-9.033 20.179-20.173V792.788c0-11.147-9.034-20.18-20.179-20.18zM513.674 65.008v-0.395s-0.12 0.066-0.364 0.192l-0.363-0.192v0.395c-8.326 4.533-86.897 58.626-146.385 157.518h293.5C600.571 123.634 522 69.541 513.673 65.008zM584.638 772.608c-10.991 0-19.902 8.91-19.902 19.908v70.2c0 10.991 8.91 19.902 19.902 19.902s19.903-8.91 19.903-19.902v-70.2c0-10.991-8.905-19.908-19.903-19.908z" p-id="8627"></path><path d="M430.669 741.618c13-1.076 74.875-0.115 82.278 0v0.014s0.13-0.005 0.363-0.005c0.234 0 0.364 0.005 0.364 0.005v-0.014c7.4-0.115 69.276-1.076 82.278 0 8.92 0.009 29.45-26.71 43.925-47.269H386.743c14.477 20.558 35.007 47.278 43.926 47.269z" p-id="8628"></path></svg>