<?xml version="1.0" standalone="no"?><!DOCTYPE svg PUBLIC "-//W3C//DTD SVG 1.1//EN" "http://www.w3.org/Graphics/SVG/1.1/DTD/svg11.dtd"><svg t="1744196457497" class="icon" viewBox="0 0 1024 1024" version="1.1" xmlns="http://www.w3.org/2000/svg" p-id="27507" xmlns:xlink="http://www.w3.org/1999/xlink" width="200" height="200"><path d="M393.856074 64.1926l117.439926 0.384h1.216l117.439926-0.384-10.367993 10.367993a90.431943 90.431943 0 0 0-26.303984 71.487956l20.287988 250.495843c3.007998 36.671977 18.111989 72.191955 42.495973 99.647938l34.175979 38.719976-122.239924-0.896-55.487965-0.447999h-1.024l-55.487965 0.447999-122.431923 0.768 34.175978-38.655976c24.383985-27.583983 39.487975-62.975961 42.495974-99.711938l20.287987-250.367843a90.239944 90.239944 0 0 0-26.239984-71.487956l-10.431993-10.367993M675.711898 0.00064h-0.192L512.384 0.64064h-0.768L348.416102 0.00064H348.160102a47.35997 47.35997 0 0 0-45.567971 33.599979c-4.095997 13.951991-1.919999 30.847981 17.791989 47.55197l38.591976 38.591976a26.879983 26.879983 0 0 1 7.807995 21.119987l-20.287988 250.367843c-1.919999 23.231985-11.199993 45.119972-26.623983 62.463961l-61.887961 69.887957a56.703965 56.703965 0 0 0-14.399991 35.391978 39.487975 39.487975 0 0 0 8.639994 27.263983c6.847996 8.319995 17.279989 12.927992 27.967983 12.927992h0.32l175.93589-1.216 55.167965 422.847736 0.384 3.071998 0.384-3.071998 55.167965-422.847736 175.99989 1.216h0.256a36.095977 36.095977 0 0 0 27.967983-12.927992 40.511975 40.511975 0 0 0 8.639994-27.263983 56.127965 56.127965 0 0 0-14.399991-35.391978l-61.887961-69.887957a107.391933 107.391933 0 0 1-26.623983-62.463961l-20.287988-250.367843a26.751983 26.751983 0 0 1 7.807995-21.119987l38.591976-38.591976c19.711988-16.63999 21.887986-33.599979 17.791989-47.55197A47.67997 47.67997 0 0 0 675.711898 0.00064z" fill="#666666" p-id="27508"></path></svg>