<?xml version="1.0" standalone="no"?><!DOCTYPE svg PUBLIC "-//W3C//DTD SVG 1.1//EN" "http://www.w3.org/Graphics/SVG/1.1/DTD/svg11.dtd"><svg t="1744204573572" class="icon" viewBox="0 0 1024 1024" version="1.1" xmlns="http://www.w3.org/2000/svg" p-id="27654" xmlns:xlink="http://www.w3.org/1999/xlink" width="200" height="200"><path d="M866.716977 669.638551a37.137931 37.137931 0 0 1-11.699778 27.565385 37.669739 37.669739 0 0 1-27.65402 11.699778h-264.131345l-31.465311 297.36935a21.360958 21.360958 0 0 1-6.558967 12.408855 17.106493 17.106493 0 0 1-12.49749 5.140812h-0.974981a17.726936 17.726936 0 0 1-19.676899-16.574685l-46.710476-298.432967H196.638799a40.062875 40.062875 0 0 1-39.353798-39.353798 212.723231 212.723231 0 0 1 48.3059-136.320137 138.890543 138.890543 0 0 1 109.109291-60.626121V157.507371a78.884865 78.884865 0 0 1 0-157.681095h393.892517a78.353057 78.353057 0 0 1 55.485309 134.28154 75.162208 75.162208 0 0 1-55.485309 23.399555v315.53946a138.801908 138.801908 0 0 1 109.197925 60.626121 212.723231 212.723231 0 0 1 48.3059 136.408772zM453.058927 452.926759V177.18427a19.588264 19.588264 0 1 0-39.176528 0v275.653854a19.588264 19.588264 0 1 0 39.176528 0z" fill="#2897FC" p-id="27655"></path></svg>